HIERARCHY
ROOT hip
{
	OFFSET 0.000000 0.000000 0.000000 
	CHANNELS 6 Xposition Yposition Zposition Xrotation Zrotation Yrotation
	JOINT abdomen
	{
		OFFSET 0.000000 3.402643 0.000000 
		CHANNELS 3 Xrotation Zrotation Yrotation
		JOINT chest
		{
			OFFSET 0.000000 8.438565 -0.680529 
			CHANNELS 3 Xrotation Zrotation Yrotation
			JOINT neck
			{
				OFFSET 0.000000 10.207942 -0.272212 
				CHANNELS 3 Xrotation Zrotation Yrotation
				JOINT head
				{
					OFFSET 0.000000 3.130431 0.000000 
					CHANNELS 3 Xrotation Zrotation Yrotation
					End Site
					{
						OFFSET 0.000000 3.130435 0.000000 
					}
				}
			}
			JOINT lCollar
			{
				OFFSET 3.470700 6.669187 -0.816635 
				CHANNELS 3 Yrotation Zrotation Xrotation
				JOINT lShldr
				{
					OFFSET 3.198488 0.000000 0.000000 
					CHANNELS 3 Zrotation Yrotation Xrotation
					JOINT lForeArm
					{
						OFFSET 10.139888 0.000000 0.000000 
						CHANNELS 3 Yrotation Zrotation Xrotation
						JOINT lHand
						{
							OFFSET 8.370511 0.000000 0.000000 
							CHANNELS 3 Zrotation Yrotation Xrotation
							End Site
							{
								OFFSET 4.083176 0.000000 0.000000 
							}
						}
					}
				}
			}
			JOINT rCollar
			{
				OFFSET -3.470700 6.669187 -0.816635 
				CHANNELS 3 Yrotation Zrotation Xrotation
				JOINT rShldr
				{
					OFFSET -3.198488 0.000000 0.000000 
					CHANNELS 3 Zrotation Yrotation Xrotation
					JOINT rForeArm
					{
						OFFSET -10.139888 0.000000 0.000000 
						CHANNELS 3 Yrotation Zrotation Xrotation
						JOINT rHand
						{
							OFFSET -8.370511 0.000000 0.000000 
							CHANNELS 3 Zrotation Yrotation Xrotation
							End Site
							{
								OFFSET -4.083176 0.000000 0.000000 
							}
						}
					}
				}
			}
		}
	}
	JOINT lThigh
	{
		OFFSET 5.308129 -1.633274 1.361059 
		CHANNELS 3 Xrotation Zrotation Yrotation
		JOINT lShin
		{
			OFFSET -2.041588 -20.007561 0.000000 
			CHANNELS 3 Xrotation Zrotation Yrotation
			JOINT lFoot
			{
				OFFSET 0.000000 -19.190928 -1.224953 
				CHANNELS 3 Xrotation Yrotation Zrotation
				End Site
				{
					OFFSET 0.000000 -2.449906 4.627600 
				}
			}
		}
	}
	JOINT rThigh
	{
		OFFSET -5.308129 -1.633274 1.361059 
		CHANNELS 3 Xrotation Zrotation Yrotation
		JOINT rShin
		{
			OFFSET 2.041588 -20.007561 0.000000 
			CHANNELS 3 Xrotation Zrotation Yrotation
			JOINT rFoot
			{
				OFFSET 0.000000 -19.190928 -1.224953 
				CHANNELS 3 Xrotation Yrotation Zrotation
				End Site
				{
					OFFSET 0.000000 -2.449906 4.627600 
				}
			}
		}
	}
}
MOTION
Frames: 15
Frame Time: 0.016667
-0.629355 44.203320 1.386871 1.195500 -4.745070 -0.734144 -16.839399 7.908010 1.491490 12.762300 4.179910 1.694100 15.006900 -6.338190 -3.198590 11.654500 2.607240 -1.005700 2.000000 -2.000000 0.000000 89.724098 169.134003 -1.353900 47.959400 -0.306402 0.101591 0.063155 -0.062038 -155.934998 -2.000000 2.000000 0.000000 68.969803 19.610201 120.348000 -22.500299 0.341157 0.052322 -0.062464 0.050225 -155.164001 -30.981916 -1.356960 -10.049320 28.717907 2.684479 2.172596 -6.574515 8.514170 0.839162 1.529376 11.792402 6.065758 24.937160 -3.157583 -1.802195 -21.121374 -12.640837 -4.628839 
-0.518667 44.147385 2.600932 1.822400 -4.646100 -0.177268 -16.803301 8.076400 1.608740 12.652700 4.362620 1.758490 14.541300 -6.395380 -3.247420 11.634700 2.578370 -1.078830 2.000000 -2.000000 0.000000 89.724297 169.235992 -3.043120 48.281700 -0.305830 0.102105 0.064849 -0.056952 -157.712997 -2.000000 2.000000 0.000000 71.627602 16.449800 117.177002 -25.049101 0.338706 0.057888 -0.080665 0.070865 -163.132996 -31.626078 -1.672503 -12.017004 25.234911 2.767071 1.942838 -7.320056 9.074889 1.057588 2.793439 11.697598 7.169722 24.061735 -3.339431 -1.701131 -20.718922 -12.518565 -4.330305 
-0.368800 44.014275 3.991005 2.233420 -4.488790 0.488950 -17.043400 8.152100 1.554530 12.150000 4.637360 1.679390 13.859100 -6.269170 -3.151210 11.352000 2.677480 -1.059580 2.000000 -2.000000 0.000000 89.724197 168.225006 -5.213460 48.340302 -0.305725 0.102198 0.067498 -0.063491 -160.231995 -2.000000 2.000000 0.000000 74.428001 11.899500 116.703003 -29.765900 0.333526 0.067877 179.906998 179.897995 8.000230 -32.154842 -2.086012 -12.285855 24.664972 2.755289 1.909638 -7.222811 8.094854 0.923839 4.038100 11.493150 7.448081 23.895063 -3.525516 -1.651093 -20.157244 -12.635838 -4.078961 
-0.150537 43.868313 5.556168 2.655060 -4.604450 1.427240 -16.976601 8.143840 1.005850 12.440000 4.969500 1.421210 13.071800 -6.698920 -2.826690 11.077600 2.592440 -0.936675 2.000000 -2.000000 0.000000 89.324203 167.537994 -7.832250 47.549301 -0.307127 0.100933 0.068077 -0.064819 -160.750000 -2.000000 2.000000 0.000000 76.810997 7.807220 117.138000 -35.547199 0.326086 0.079486 179.899994 179.878998 -1.052500 -32.701218 -2.318538 -10.687034 26.895004 2.630202 2.092399 -6.735882 6.894624 0.635337 4.826395 11.631585 7.025517 24.811861 -3.675715 -1.674264 -19.462864 -12.654058 -3.825589 
0.161007 43.776241 7.274135 3.262930 -4.699430 1.723870 -17.189899 8.195780 0.777899 12.181500 5.246500 1.270280 13.427400 -7.153860 -2.456280 11.379500 2.444810 -0.746442 2.000000 -2.000000 0.000000 -90.968597 13.472800 170.182999 45.732899 -0.310278 0.097958 0.067165 -0.062711 -159.929993 -2.000000 2.000000 0.000000 79.144203 3.373800 116.976997 -42.812901 0.315141 0.092917 179.886993 179.876007 -7.712670 -32.721004 -2.405236 -8.878014 30.108515 2.453648 2.355723 -8.531934 6.949294 0.787522 5.117895 11.396220 6.291936 26.602150 -3.740875 -1.764909 -17.861242 -11.691607 -3.089130 
0.550231 43.915001 9.133163 3.946010 -4.169810 1.430710 -17.750401 8.005260 0.425357 11.467600 5.747730 0.957813 12.951900 -7.900160 -2.000880 11.045600 2.224370 -0.504898 2.000000 -2.000000 0.000000 -91.408401 15.518700 168.069000 43.555099 -0.313929 0.094262 0.065670 -0.059068 -158.522995 -2.000000 2.000000 0.000000 81.499496 -1.920140 117.848999 -51.689899 0.299602 0.107281 -0.122151 0.130954 168.371002 -32.157566 -2.898798 -6.884253 31.090710 2.345946 2.445877 -8.154696 9.474070 1.100995 4.858361 9.981689 4.813310 28.966959 -3.712463 -1.909401 -14.218260 -9.553597 -1.840074 
0.997360 44.143013 11.229001 4.478920 -3.027850 1.305720 -17.772400 7.362390 -0.038229 11.718300 6.031580 0.606960 12.933100 -8.402060 -1.528370 11.151700 2.020140 -0.262886 2.000000 -2.000000 0.000000 -91.359703 16.697500 166.875000 40.986698 -0.318051 0.089728 0.064360 -0.055646 -157.214996 -2.000000 2.000000 0.000000 84.121597 -7.166710 119.950996 -62.266102 0.278473 0.121016 -0.132764 0.137854 163.850006 -30.376781 -3.900128 -4.991954 30.177313 2.253367 2.450201 -6.287068 8.855927 0.775879 3.624728 8.055238 3.735065 33.619450 -3.539680 -2.190545 -8.548980 -7.908214 -0.765669 
1.472912 44.288582 13.322122 4.749820 -2.267580 0.963740 -17.933500 6.681970 -0.855009 11.692700 6.378630 0.062811 12.507200 -8.525210 -0.584069 10.927100 2.031270 0.199117 2.000000 -2.000000 0.000000 -91.633598 18.529600 165.201004 38.877300 -0.321282 0.085869 0.063083 -0.061831 -155.856995 -2.000000 2.000000 0.000000 85.850700 -12.283600 119.720001 -70.430199 0.260643 0.128825 -0.148161 0.145925 157.639008 -28.320616 -4.444129 -3.328055 29.888512 2.192970 2.460241 -6.429118 4.936874 0.340711 0.775253 6.255019 2.305576 40.254978 -3.127618 -2.634347 0.979562 -6.708909 0.225833 
1.890877 44.377316 15.280626 4.668800 -1.080390 1.425280 -17.852600 5.629950 -1.963300 11.638200 6.676850 -0.664142 12.223400 -8.508420 0.416794 10.936900 2.040900 0.688920 2.000000 -2.000000 0.000000 -91.302597 20.003401 164.845993 38.193802 -0.322298 0.084593 0.062968 -0.061495 -155.729996 -2.000000 2.000000 0.000000 87.517899 -15.553200 118.047997 -77.500504 0.244439 0.133483 -0.153224 0.148134 155.666000 -25.576624 -5.861640 -2.894408 29.038654 2.146831 2.427659 -7.408385 3.436244 0.193781 -3.844721 4.297916 1.674445 48.891827 -2.489426 -3.176993 12.753226 -7.220920 1.371546 
2.260942 44.444195 17.135107 4.200280 1.285600 1.500850 -17.530800 4.507400 -2.812350 11.639900 7.593760 -1.324390 11.275300 -8.966950 1.204580 10.643000 1.916650 1.034930 2.000000 -2.000000 0.000000 -90.571098 20.571400 165.548004 37.549198 -0.323242 0.083379 0.052529 -0.049705 -154.968994 -2.000000 2.000000 0.000000 87.205902 -17.379299 117.958000 -83.213402 0.231005 0.135766 -0.141567 0.142728 160.255997 -21.984074 -8.288032 -1.335517 27.237207 2.093914 2.346415 -8.367056 1.929654 -0.036797 -9.345530 1.437214 1.819728 58.881100 -1.713970 -3.709418 19.322208 -8.993240 2.550380 
2.612155 44.406258 18.923418 3.854570 3.429740 1.656900 -17.322201 3.575690 -3.544200 11.689800 8.463590 -1.890100 10.545700 -9.876480 2.122990 10.377700 1.656150 1.475420 2.000000 -2.000000 0.000000 -89.458801 20.691700 166.884995 37.676201 -0.323057 0.083619 0.052143 -0.048508 -154.518997 -2.000000 2.000000 0.000000 85.603600 -17.857300 117.546997 -87.910698 0.219833 0.136634 -0.128620 0.135300 165.587997 -18.767689 -10.642809 -0.236828 25.700562 2.042230 2.280253 -9.420568 0.962992 -0.252720 -14.852777 -1.160161 1.038559 67.288231 -0.958670 -4.095755 14.103893 -7.646720 1.334698 
2.934926 44.321373 20.695889 3.898040 4.364920 2.612210 -17.249100 3.079960 -4.283270 11.807900 8.900830 -2.339250 10.111400 -10.615500 2.448320 10.151700 1.395170 1.626290 2.000000 -2.000000 0.000000 -87.954498 19.542400 168.205994 37.578499 -0.323199 0.083434 0.051307 -0.045789 -153.503998 -2.000000 2.000000 0.000000 83.570297 -16.997101 116.766998 -92.226997 0.209916 0.117098 -0.121394 0.130415 168.703003 -16.508644 -11.923692 -0.014375 25.317051 2.038777 2.239179 -11.342317 -0.129769 -0.574633 -20.051725 -2.339569 -0.302009 71.935760 -0.439706 -4.319202 7.080453 -9.573890 0.567407 
3.283501 44.171944 22.485214 4.199560 5.571030 3.241360 -17.331200 2.675620 -4.613320 11.709600 9.275060 -2.597690 10.162100 -10.955900 2.573810 10.151300 1.298070 1.693970 2.000000 -2.000000 0.000000 -86.673897 17.804701 168.453995 38.525799 -0.321806 0.085214 0.050810 -0.044083 -152.869003 -2.000000 2.000000 0.000000 81.223900 -15.189500 115.841003 -95.615700 0.202426 0.116585 179.889999 179.869003 -6.042740 -14.428451 -13.364080 0.820273 24.671150 2.019173 2.219932 -12.571692 -1.338473 -0.977929 -25.190403 -3.544455 -0.817606 73.393326 -0.180208 -4.403303 0.766908 -9.932781 -0.344797 
3.626885 43.936478 24.253529 4.707450 6.433490 3.635160 -17.413300 2.440460 -4.658650 11.606900 9.417300 -2.666770 9.954370 -11.241400 2.533690 10.082300 1.172140 1.669230 2.000000 -2.000000 0.000000 -85.344498 15.638100 169.016006 40.156700 -0.319339 0.088223 0.051199 -0.045422 -153.367004 -2.000000 2.000000 0.000000 79.032303 -12.199600 114.323997 -98.906700 0.195193 0.115664 179.901993 179.889999 0.011944 -12.990648 -14.353957 1.903786 24.879230 2.007069 2.251856 -14.716990 -2.356245 -1.424582 -29.933062 -3.898165 -0.714501 71.771873 -0.170645 -4.429605 -4.806688 -9.086557 -1.010281 
3.941308 43.674641 26.027798 5.199920 7.420850 4.394790 -17.466299 2.276210 -4.764090 11.470200 9.712950 -2.775320 9.513720 -11.196000 2.451190 9.916490 1.221410 1.592730 2.000000 -2.000000 0.000000 -84.103203 13.238400 170.143997 42.656700 -0.315394 0.092697 0.062473 -0.060017 -155.173996 -2.000000 2.000000 0.000000 76.762802 -8.311560 112.902000 -102.481003 0.187412 0.114195 179.906006 179.897003 7.717030 -11.394986 -15.556932 2.560231 24.946596 2.022734 2.253581 -16.397118 -2.796965 -1.736494 -34.317139 -4.347007 -0.712972 67.988403 -0.404816 -4.334425 -9.865483 -7.672357 -1.268470 
